<?xml version="1.0" standalone="no"?><!DOCTYPE svg PUBLIC "-//W3C//DTD SVG 1.1//EN" "http://www.w3.org/Graphics/SVG/1.1/DTD/svg11.dtd"><svg xmlns="http://www.w3.org/2000/svg" version="1.1" width="911.733" height="1474.024" xmlns:xlink="http://www.w3.org/1999/xlink" xlink="http://www.w3.org/1999/xlink" style="position:relative;overflow:hidden;" viewBox="30.712 24.427 911.733 1474.024"><defs><filter id="effadb1e-25a1-4e8d-80a2-f81ce23af8b9" x="-0.5" y="-0.5" width="2" height="2"><feFlood flood-color="#000" flood-opacity="0.6" result="flood"/><feComposite in="flood" in2="SourceAlpha" operator="in" result="mask"/><feGaussianBlur in="mask" stdDeviation="2"/><feOffset dx="1.25" dy="1.25" result="oEffect0"/><feMerge><feMergeNode in="oEffect0"/><feMergeNode in="SourceGraphic"/></feMerge></filter></defs><g><g width="150" height="75" transform="scale(1,1) translate(212.35,40.94)"><g stroke="#7F7F7F" stroke-opacity="1" stroke-width="1" stroke-dasharray="none" width="150" height="75" transform="scale(1,1) translate(0,0)" fill="url(#d7c59312-eb1a-4dcf-8250-45103a7ce491)" filter="url(#effadb1e-25a1-4e8d-80a2-f81ce23af8b9)"><linearGradient id="d7c59312-eb1a-4dcf-8250-45103a7ce491" x1="75" y1="0" x2="75" y2="75" gradientUnits="userSpaceOnUse"><stop offset="0%" style="stop-color:#92B0CF;stop-opacity:1;"/><stop offset="100%" style="stop-color:#8CA8CD;stop-opacity:1;"/></linearGradient><rect width="150" height="75"/></g><g width="143.33333333333334" height="68.33333333333333" transform="scale(1,1) translate(3.333,3.333)"><text width="143.33333333333334" height="16.666667938232422" transform="scale(1,1) translate(0,25.833332697550453)" xml:space="preserve"><tspan xml:space="preserve" text-rendering="optimizeSpeed" style="font-family: Arial, Helvetica Neue, Helvetica, sans-serif;" font-size="13.88888888888889" font-weight="normal" font-style="normal" fill="#333333" opacity="1" x="36.25" text-anchor="start" y="13.542" textLength="70.83333587646484">Bot Paused</tspan></text></g></g><g width="251" height="100.5" transform="scale(1,1) translate(161.85,115.94)"><g fill="#545454" stroke="#545454" stroke-opacity="1" transform="scale(1,1) translate(0,0)"><path fill="none" stroke-width="1" stroke-dasharray="none" d="M125.5,0 L125.5,0 M125.5,0 L125.5,0 M125.5,0 L125.5,0 M125.5,0 L0,100.5 M125.5,0 L251,100.5"/><g><g stroke-dasharray="none"><path d="M122.5,-3L128.5,-3L128.5,3L122.5,3z" stroke-width="0" fill="none"/></g></g></g><g stroke-width="0" stroke-dasharray="none" fill="#FFFFFF" opacity="1" width="24.917" height="18.667" transform="scale(1,1) translate(50.292,40.917)"><rect width="24.917" height="18.667"/></g><g width="22.916667938232422" height="140.5" transform="scale(1,1) translate(51.292,41.917)"><text width="22.916667938232422" height="16.666667938232422" transform="scale(1,1) translate(0,0)" xml:space="preserve"><tspan xml:space="preserve" text-rendering="optimizeSpeed" style="font-family: Arial, Helvetica Neue, Helvetica, sans-serif;" font-size="13.88888888888889" font-weight="normal" font-style="normal" fill="#333333" opacity="1" x="0" text-anchor="start" y="13.542" textLength="22.916667938232422">Yes</tspan></text></g><g stroke-width="0" stroke-dasharray="none" fill="#FFFFFF" opacity="1" width="18.667" height="18.667" transform="scale(1,1) translate(178.917,40.917)"><rect width="18.667" height="18.667"/></g><g width="16.666667938232422" height="140.5" transform="scale(1,1) translate(179.917,41.917)"><text width="16.666667938232422" height="16.666667938232422" transform="scale(1,1) translate(0,0)" xml:space="preserve"><tspan xml:space="preserve" text-rendering="optimizeSpeed" style="font-family: Arial, Helvetica Neue, Helvetica, sans-serif;" font-size="13.88888888888889" font-weight="normal" font-style="normal" fill="#333333" opacity="1" x="0" text-anchor="start" y="13.542" textLength="16.666667938232422">No</tspan></text></g></g><g width="251" height="50.5" transform="scale(1,1) translate(287.35,291.44)"><g fill="#545454" stroke="#545454" stroke-opacity="1" transform="scale(1,1) translate(0,0)"><path fill="none" stroke-width="1" stroke-dasharray="none" d="M125.5,0 L125.5,0 M125.5,0 L125.5,0 M125.5,0 L125.5,0 M125.5,0 L0,50.5 M125.5,0 L251,50.5"/><g><g stroke-dasharray="none"><path d="M120.5,-5L130.5,-5L130.5,5L120.5,5z" stroke-width="0" fill="none"/></g></g></g><g stroke-width="0" stroke-dasharray="none" fill="#FFFFFF" opacity="1" width="24.917" height="18.667" transform="scale(1,1) translate(50.292,15.917)"><rect width="24.917" height="18.667"/></g><g width="22.916667938232422" height="90.5" transform="scale(1,1) translate(51.292,16.917)"><text width="22.916667938232422" height="16.666667938232422" transform="scale(1,1) translate(0,0)" xml:space="preserve"><tspan xml:space="preserve" text-rendering="optimizeSpeed" style="font-family: Arial, Helvetica Neue, Helvetica, sans-serif;" font-size="13.88888888888889" font-weight="normal" font-style="normal" fill="#333333" opacity="1" x="0" text-anchor="start" y="13.542" textLength="22.916667938232422">Yes</tspan></text></g><g stroke-width="0" stroke-dasharray="none" fill="#FFFFFF" opacity="1" width="18.667" height="18.667" transform="scale(1,1) translate(178.917,15.917)"><rect width="18.667" height="18.667"/></g><g width="16.666667938232422" height="90.5" transform="scale(1,1) translate(179.917,16.917)"><text width="16.666667938232422" height="16.666667938232422" transform="scale(1,1) translate(0,0)" xml:space="preserve"><tspan xml:space="preserve" text-rendering="optimizeSpeed" style="font-family: Arial, Helvetica Neue, Helvetica, sans-serif;" font-size="13.88888888888889" font-weight="normal" font-style="normal" fill="#333333" opacity="1" x="0" text-anchor="start" y="13.542" textLength="16.666667938232422">No</tspan></text></g></g><g width="150" height="75" transform="scale(1,1) translate(337.85,216.44)"><g stroke="#7F7F7F" stroke-opacity="1" stroke-width="1" stroke-dasharray="none" width="150" height="75" transform="scale(1,1) translate(0,0)" fill="url(#0055f787-adf9-4d7e-8256-4645c14c2202)" filter="url(#effadb1e-25a1-4e8d-80a2-f81ce23af8b9)"><linearGradient id="0055f787-adf9-4d7e-8256-4645c14c2202" x1="75" y1="0" x2="75" y2="75" gradientUnits="userSpaceOnUse"><stop offset="0%" style="stop-color:#92B0CF;stop-opacity:1;"/><stop offset="100%" style="stop-color:#8CA8CD;stop-opacity:1;"/></linearGradient><rect width="150" height="75"/></g><g width="143.33333333333334" height="68.33333333333333" transform="scale(1,1) translate(3.333,3.333)"><text width="143.33333333333334" height="16.666667938232422" transform="scale(1,1) translate(0,25.833332697550453)" xml:space="preserve"><tspan xml:space="preserve" text-rendering="optimizeSpeed" style="font-family: Arial, Helvetica Neue, Helvetica, sans-serif;" font-size="13.88888888888889" font-weight="normal" font-style="normal" fill="#333333" opacity="1" x="18.021" text-anchor="start" y="13.542" textLength="107.29167175292969">Docked in Station</tspan></text></g></g><g width="150" height="75" transform="scale(1,1) translate(86.85,216.44)"><g stroke="#7F7F7F" stroke-opacity="1" stroke-width="1" stroke-dasharray="none" width="150" height="75" transform="scale(1,1) translate(0,0)" fill="url(#a30525e8-4d50-4002-897c-9b6ad92bce52)" filter="url(#effadb1e-25a1-4e8d-80a2-f81ce23af8b9)"><linearGradient id="a30525e8-4d50-4002-897c-9b6ad92bce52" x1="75" y1="0" x2="75" y2="75" gradientUnits="userSpaceOnUse"><stop offset="0%" style="stop-color:#92B0CF;stop-opacity:1;"/><stop offset="100%" style="stop-color:#8CA8CD;stop-opacity:1;"/></linearGradient><rect width="150" height="75"/></g><g width="143.33333333333334" height="68.33333333333333" transform="scale(1,1) translate(3.333,3.333)"><text width="143.33333333333334" height="16.666667938232422" transform="scale(1,1) translate(0,25.833332697550453)" xml:space="preserve"><tspan xml:space="preserve" text-rendering="optimizeSpeed" style="font-family: Arial, Helvetica Neue, Helvetica, sans-serif;" font-size="13.88888888888889" font-weight="normal" font-style="normal" fill="#333333" opacity="1" x="57.604" text-anchor="start" y="13.542" textLength="28.125003814697266">Wait</tspan></text></g></g><g width="124.31" height="178.25" transform="scale(1,1) translate(86.76,77.21)"><g fill="#545454" stroke="#545454" stroke-opacity="1" transform="scale(1,1) translate(0,0)"><path fill="none" stroke-width="1" stroke-dasharray="none" d="M 0 178.25 A 126.004 126.004 0 0 1 114.32 -0.384"/><g><g stroke-dasharray="none"><path d="M114.512,-5.381L124.313,0L114.128,4.612z" stroke="none" fill-opacity="1"/></g></g></g></g><g width="0" height="50" transform="scale(1,1) translate(287.35,416.94)"><g fill="#545454" stroke="#545454" stroke-opacity="1" transform="scale(1,1) translate(0,0)"><path fill="none" stroke-width="1" stroke-dasharray="none" d="M0,0"/></g></g><g width="150" height="75" transform="scale(1,1) translate(212.35,341.94)"><g stroke="#7F7F7F" stroke-opacity="1" stroke-width="1" stroke-dasharray="none" width="150" height="75" transform="scale(1,1) translate(0,0)" fill="url(#c1cb58d2-16f7-421a-8ad6-f17f6ec5c2e6)" filter="url(#effadb1e-25a1-4e8d-80a2-f81ce23af8b9)"><linearGradient id="c1cb58d2-16f7-421a-8ad6-f17f6ec5c2e6" x1="75" y1="0" x2="75" y2="75" gradientUnits="userSpaceOnUse"><stop offset="0%" style="stop-color:#92B0CF;stop-opacity:1;"/><stop offset="100%" style="stop-color:#8CA8CD;stop-opacity:1;"/></linearGradient><rect width="150" height="75"/></g><g width="143.33333333333334" height="68.33333333333333" transform="scale(1,1) translate(3.333,3.333)"><text width="143.33333333333334" height="16.666667938232422" transform="scale(1,1) translate(0,25.833332697550453)" xml:space="preserve"><tspan xml:space="preserve" text-rendering="optimizeSpeed" style="font-family: Arial, Helvetica Neue, Helvetica, sans-serif;" font-size="13.88888888888889" font-weight="normal" font-style="normal" fill="#333333" opacity="1" x="19.062" text-anchor="start" y="13.542" textLength="105.20833587646484">Routine = Station</tspan></text></g></g><g width="0" height="50" transform="scale(1,1) translate(412.85,667.94)"><g fill="#545454" stroke="#545454" stroke-opacity="1" transform="scale(1,1) translate(0,0)"><path fill="none" stroke-width="1" stroke-dasharray="none" d="M0,0"/></g></g><g width="0" height="50.5" transform="scale(1,1) translate(538.35,416.94)"><g fill="#545454" stroke="#545454" stroke-opacity="1" transform="scale(1,1) translate(0,0)"><path fill="none" stroke-width="1" stroke-dasharray="none" d="M0,0 L0,0 M0,0 L0,0 M0,0 L0,0 M0,0 L0,50.5"/><g><g stroke-dasharray="none"><path d="M-5,-5L5,-5L5,5L-5,5z" stroke-width="0" fill="none"/></g></g></g></g><g width="150" height="75" transform="scale(1,1) translate(463.35,341.94)"><g stroke="#7F7F7F" stroke-opacity="1" stroke-width="1" stroke-dasharray="none" width="150" height="75" transform="scale(1,1) translate(0,0)" fill="url(#98747d03-5a67-46b4-8bdb-0b25ec2f442a)" filter="url(#effadb1e-25a1-4e8d-80a2-f81ce23af8b9)"><linearGradient id="98747d03-5a67-46b4-8bdb-0b25ec2f442a" x1="75" y1="0" x2="75" y2="75" gradientUnits="userSpaceOnUse"><stop offset="0%" style="stop-color:#92B0CF;stop-opacity:1;"/><stop offset="100%" style="stop-color:#8CA8CD;stop-opacity:1;"/></linearGradient><rect width="150" height="75"/></g><g width="143.33333333333334" height="68.33333333333333" transform="scale(1,1) translate(3.333,3.333)"><text width="143.33333333333334" height="33.333335876464844" transform="scale(1,1) translate(0,17.499998728434242)" xml:space="preserve"><tspan xml:space="preserve" text-rendering="optimizeSpeed" style="font-family: Arial, Helvetica Neue, Helvetica, sans-serif;" font-size="13.88888888888889" font-weight="normal" font-style="normal" fill="#333333" opacity="1" x="12.292" text-anchor="start" y="13.542" textLength="114.58334350585938">Routine = Travel To</tspan><tspan xml:space="preserve" text-rendering="optimizeSpeed" style="font-family: Arial, Helvetica Neue, Helvetica, sans-serif;" font-size="13.88888888888889" font-weight="normal" font-style="normal" fill="#333333" opacity="1" x="45.625" text-anchor="start" y="30.208" textLength="52.083335876464844">Anomaly</tspan></text></g></g><g width="251" height="50.5" transform="scale(1,1) translate(412.85,542.44)"><g fill="#545454" stroke="#545454" stroke-opacity="1" transform="scale(1,1) translate(0,0)"><path fill="none" stroke-width="1" stroke-dasharray="none" d="M125.5,0 L125.5,0 M125.5,0 L125.5,0 M125.5,0 L125.5,0 M125.5,0 L0,50.5 M125.5,0 L251,50.5"/><g><g stroke-dasharray="none"><path d="M120.5,-5L130.5,-5L130.5,5L120.5,5z" stroke-width="0" fill="none"/></g></g></g><g stroke-width="0" stroke-dasharray="none" fill="#FFFFFF" opacity="1" width="24.917" height="18.667" transform="scale(1,1) translate(50.292,15.917)"><rect width="24.917" height="18.667"/></g><g width="22.916667938232422" height="90.5" transform="scale(1,1) translate(51.292,16.917)"><text width="22.916667938232422" height="16.666667938232422" transform="scale(1,1) translate(0,0)" xml:space="preserve"><tspan xml:space="preserve" text-rendering="optimizeSpeed" style="font-family: Arial, Helvetica Neue, Helvetica, sans-serif;" font-size="13.88888888888889" font-weight="normal" font-style="normal" fill="#333333" opacity="1" x="0" text-anchor="start" y="13.542" textLength="22.916667938232422">Yes</tspan></text></g><g stroke-width="0" stroke-dasharray="none" fill="#FFFFFF" opacity="1" width="18.667" height="18.667" transform="scale(1,1) translate(178.917,15.917)"><rect width="18.667" height="18.667"/></g><g width="16.666667938232422" height="90.5" transform="scale(1,1) translate(179.917,16.917)"><text width="16.666667938232422" height="16.666667938232422" transform="scale(1,1) translate(0,0)" xml:space="preserve"><tspan xml:space="preserve" text-rendering="optimizeSpeed" style="font-family: Arial, Helvetica Neue, Helvetica, sans-serif;" font-size="13.88888888888889" font-weight="normal" font-style="normal" fill="#333333" opacity="1" x="0" text-anchor="start" y="13.542" textLength="16.666667938232422">No</tspan></text></g></g><g width="150" height="75" transform="scale(1,1) translate(463.35,467.44)"><g stroke="#7F7F7F" stroke-opacity="1" stroke-width="1" stroke-dasharray="none" width="150" height="75" transform="scale(1,1) translate(0,0)" fill="url(#b4a9b364-dd98-4222-8821-6cccbd6e11f8)" filter="url(#effadb1e-25a1-4e8d-80a2-f81ce23af8b9)"><linearGradient id="b4a9b364-dd98-4222-8821-6cccbd6e11f8" x1="75" y1="0" x2="75" y2="75" gradientUnits="userSpaceOnUse"><stop offset="0%" style="stop-color:#92B0CF;stop-opacity:1;"/><stop offset="100%" style="stop-color:#8CA8CD;stop-opacity:1;"/></linearGradient><rect width="150" height="75"/></g><g width="143.33333333333334" height="68.33333333333333" transform="scale(1,1) translate(3.333,3.333)"><text width="143.33333333333334" height="16.666667938232422" transform="scale(1,1) translate(0,25.833332697550453)" xml:space="preserve"><tspan xml:space="preserve" text-rendering="optimizeSpeed" style="font-family: Arial, Helvetica Neue, Helvetica, sans-serif;" font-size="13.88888888888889" font-weight="normal" font-style="normal" fill="#333333" opacity="1" x="14.375" text-anchor="start" y="13.542" textLength="114.58333587646484">Anomaly Occupied</tspan></text></g></g><g width="150" height="75" transform="scale(1,1) translate(337.85,592.94)"><g stroke="#7F7F7F" stroke-opacity="1" stroke-width="1" stroke-dasharray="none" width="150" height="75" transform="scale(1,1) translate(0,0)" fill="url(#16a63fde-27c5-4459-8673-40b91b08e0e6)" filter="url(#effadb1e-25a1-4e8d-80a2-f81ce23af8b9)"><linearGradient id="16a63fde-27c5-4459-8673-40b91b08e0e6" x1="75" y1="0" x2="75" y2="75" gradientUnits="userSpaceOnUse"><stop offset="0%" style="stop-color:#92B0CF;stop-opacity:1;"/><stop offset="100%" style="stop-color:#8CA8CD;stop-opacity:1;"/></linearGradient><rect width="150" height="75"/></g><g width="143.33333333333334" height="68.33333333333333" transform="scale(1,1) translate(3.333,3.333)"><text width="143.33333333333334" height="16.666667938232422" transform="scale(1,1) translate(0,25.833332697550453)" xml:space="preserve"><tspan xml:space="preserve" text-rendering="optimizeSpeed" style="font-family: Arial, Helvetica Neue, Helvetica, sans-serif;" font-size="13.88888888888889" font-weight="normal" font-style="normal" fill="#333333" opacity="1" x="6.562" text-anchor="start" y="13.542" textLength="130.20834350585938">Warp to new anomaly</tspan></text></g></g><g width="0" height="50.5" transform="scale(1,1) translate(663.85,667.94)"><g fill="#545454" stroke="#545454" stroke-opacity="1" transform="scale(1,1) translate(0,0)"><path fill="none" stroke-width="1" stroke-dasharray="none" d="M0,0 L0,0 M0,0 L0,0 M0,0 L0,0 M0,0 L0,50.5"/><g><g stroke-dasharray="none"><path d="M-5,-5L5,-5L5,5L-5,5z" stroke-width="0" fill="none"/></g></g></g></g><g width="150" height="75" transform="scale(1,1) translate(588.85,592.94)"><g stroke="#7F7F7F" stroke-opacity="1" stroke-width="1" stroke-dasharray="none" width="150" height="75" transform="scale(1,1) translate(0,0)" fill="url(#96e055e6-9edd-4090-8a25-62ee07193e3b)" filter="url(#effadb1e-25a1-4e8d-80a2-f81ce23af8b9)"><linearGradient id="96e055e6-9edd-4090-8a25-62ee07193e3b" x1="75" y1="0" x2="75" y2="75" gradientUnits="userSpaceOnUse"><stop offset="0%" style="stop-color:#92B0CF;stop-opacity:1;"/><stop offset="100%" style="stop-color:#8CA8CD;stop-opacity:1;"/></linearGradient><rect width="150" height="75"/></g><g width="143.33333333333334" height="68.33333333333333" transform="scale(1,1) translate(3.333,3.333)"><text width="143.33333333333334" height="16.666667938232422" transform="scale(1,1) translate(0,25.833332697550453)" xml:space="preserve"><tspan xml:space="preserve" text-rendering="optimizeSpeed" style="font-family: Arial, Helvetica Neue, Helvetica, sans-serif;" font-size="13.88888888888889" font-weight="normal" font-style="normal" fill="#333333" opacity="1" x="16.979" text-anchor="start" y="13.542" textLength="109.37500762939453">Routine = Combat</tspan></text></g></g><g width="124.31" height="257.921" transform="scale(1,1) translate(338.48,373.571)"><g fill="#545454" stroke="#545454" stroke-opacity="1" transform="scale(1,1) translate(0,0)"><path fill="none" stroke-width="1" stroke-dasharray="none" d="M 0 257.921 A 193.721 193.721 0 0 1 114.806 3.106"/><g><g stroke-dasharray="none"><path d="M113.253,-1.646L124.311,0L116.359,7.859z" stroke="none" fill-opacity="1"/></g></g></g></g><g width="0" height="50" transform="scale(1,1) translate(412.85,1169.94)"><g fill="#545454" stroke="#545454" stroke-opacity="1" transform="scale(1,1) translate(0,0)"><path fill="none" stroke-width="1" stroke-dasharray="none" d="M0,0"/></g></g><g width="251" height="50.5" transform="scale(1,1) translate(538.35,793.44)"><g fill="#545454" stroke="#545454" stroke-opacity="1" transform="scale(1,1) translate(0,0)"><path fill="none" stroke-width="1" stroke-dasharray="none" d="M125.5,0 L125.5,0 M125.5,0 L125.5,0 M125.5,0 L125.5,0 M125.5,0 L0,50.5 M125.5,0 L251,50.5"/><g><g stroke-dasharray="none"><path d="M120.5,-5L130.5,-5L130.5,5L120.5,5z" stroke-width="0" fill="none"/></g></g></g><g stroke-width="0" stroke-dasharray="none" fill="#FFFFFF" opacity="1" width="24.917" height="18.667" transform="scale(1,1) translate(50.292,15.917)"><rect width="24.917" height="18.667"/></g><g width="22.916667938232422" height="90.5" transform="scale(1,1) translate(51.292,16.917)"><text width="22.916667938232422" height="16.666667938232422" transform="scale(1,1) translate(0,0)" xml:space="preserve"><tspan xml:space="preserve" text-rendering="optimizeSpeed" style="font-family: Arial, Helvetica Neue, Helvetica, sans-serif;" font-size="13.88888888888889" font-weight="normal" font-style="normal" fill="#333333" opacity="1" x="0" text-anchor="start" y="13.542" textLength="22.916667938232422">Yes</tspan></text></g><g stroke-width="0" stroke-dasharray="none" fill="#FFFFFF" opacity="1" width="18.667" height="18.667" transform="scale(1,1) translate(178.917,15.917)"><rect width="18.667" height="18.667"/></g><g width="16.666667938232422" height="90.5" transform="scale(1,1) translate(179.917,16.917)"><text width="16.666667938232422" height="16.666667938232422" transform="scale(1,1) translate(0,0)" xml:space="preserve"><tspan xml:space="preserve" text-rendering="optimizeSpeed" style="font-family: Arial, Helvetica Neue, Helvetica, sans-serif;" font-size="13.88888888888889" font-weight="normal" font-style="normal" fill="#333333" opacity="1" x="0" text-anchor="start" y="13.542" textLength="16.666667938232422">No</tspan></text></g></g><g width="150" height="75" transform="scale(1,1) translate(588.85,718.44)"><g stroke="#7F7F7F" stroke-opacity="1" stroke-width="1" stroke-dasharray="none" width="150" height="75" transform="scale(1,1) translate(0,0)" fill="url(#24887fb7-1b2e-4bfd-8e4a-7862a2c3596d)" filter="url(#effadb1e-25a1-4e8d-80a2-f81ce23af8b9)"><linearGradient id="24887fb7-1b2e-4bfd-8e4a-7862a2c3596d" x1="75" y1="0" x2="75" y2="75" gradientUnits="userSpaceOnUse"><stop offset="0%" style="stop-color:#92B0CF;stop-opacity:1;"/><stop offset="100%" style="stop-color:#8CA8CD;stop-opacity:1;"/></linearGradient><rect width="150" height="75"/></g><g width="143.33333333333334" height="68.33333333333333" transform="scale(1,1) translate(3.333,3.333)"><text width="143.33333333333334" height="16.666667938232422" transform="scale(1,1) translate(0,25.833332697550453)" xml:space="preserve"><tspan xml:space="preserve" text-rendering="optimizeSpeed" style="font-family: Arial, Helvetica Neue, Helvetica, sans-serif;" font-size="13.88888888888889" font-weight="normal" font-style="normal" fill="#333333" opacity="1" x="24.271" text-anchor="start" y="13.542" textLength="94.79167175292969">Are there NPCs</tspan></text></g></g><g width="0" height="50.5" transform="scale(1,1) translate(538.35,918.94)"><g fill="#545454" stroke="#545454" stroke-opacity="1" transform="scale(1,1) translate(0,0)"><path fill="none" stroke-width="1" stroke-dasharray="none" d="M0,0 L0,0 M0,0 L0,0 M0,0 L0,0 M0,0 L0,50.5"/><g><g stroke-dasharray="none"><path d="M-5,-5L5,-5L5,5L-5,5z" stroke-width="0" fill="none"/></g></g></g></g><g width="150" height="75" transform="scale(1,1) translate(463.35,843.94)"><g stroke="#7F7F7F" stroke-opacity="1" stroke-width="1" stroke-dasharray="none" width="150" height="75" transform="scale(1,1) translate(0,0)" fill="url(#fa0c156d-4a25-4ab2-8845-acaa210b96d0)" filter="url(#effadb1e-25a1-4e8d-80a2-f81ce23af8b9)"><linearGradient id="fa0c156d-4a25-4ab2-8845-acaa210b96d0" x1="75" y1="0" x2="75" y2="75" gradientUnits="userSpaceOnUse"><stop offset="0%" style="stop-color:#92B0CF;stop-opacity:1;"/><stop offset="100%" style="stop-color:#8CA8CD;stop-opacity:1;"/></linearGradient><rect width="150" height="75"/></g><g width="143.33333333333334" height="68.33333333333333" transform="scale(1,1) translate(3.333,3.333)"><text width="143.33333333333334" height="33.333335876464844" transform="scale(1,1) translate(0,17.499998728434242)" xml:space="preserve"><tspan xml:space="preserve" text-rendering="optimizeSpeed" style="font-family: Arial, Helvetica Neue, Helvetica, sans-serif;" font-size="13.88888888888889" font-weight="normal" font-style="normal" fill="#333333" opacity="1" x="0.312" text-anchor="start" y="13.542" textLength="138.5416717529297">Launch drones/activate</tspan><tspan xml:space="preserve" text-rendering="optimizeSpeed" style="font-family: Arial, Helvetica Neue, Helvetica, sans-serif;" font-size="13.88888888888889" font-weight="normal" font-style="normal" fill="#333333" opacity="1" x="45.104" text-anchor="start" y="30.208" textLength="53.12501525878906">weapons</tspan></text></g></g><g width="0" height="50" transform="scale(1,1) translate(789.35,918.94)"><g fill="#545454" stroke="#545454" stroke-opacity="1" transform="scale(1,1) translate(0,0)"><path fill="none" stroke-width="1" stroke-dasharray="none" d="M0,0"/></g></g><g width="150" height="75" transform="scale(1,1) translate(714.35,843.94)"><g stroke="#7F7F7F" stroke-opacity="1" stroke-width="1" stroke-dasharray="none" width="150" height="75" transform="scale(1,1) translate(0,0)" fill="url(#e0d9c76a-b1d9-4617-83ab-874f95d6577e)" filter="url(#effadb1e-25a1-4e8d-80a2-f81ce23af8b9)"><linearGradient id="e0d9c76a-b1d9-4617-83ab-874f95d6577e" x1="75" y1="0" x2="75" y2="75" gradientUnits="userSpaceOnUse"><stop offset="0%" style="stop-color:#92B0CF;stop-opacity:1;"/><stop offset="100%" style="stop-color:#8CA8CD;stop-opacity:1;"/></linearGradient><rect width="150" height="75"/></g><g width="143.33333333333334" height="68.33333333333333" transform="scale(1,1) translate(3.333,3.333)"><text width="143.33333333333334" height="16.666667938232422" transform="scale(1,1) translate(0,25.833332697550453)" xml:space="preserve"><tspan xml:space="preserve" text-rendering="optimizeSpeed" style="font-family: Arial, Helvetica Neue, Helvetica, sans-serif;" font-size="13.88888888888889" font-weight="normal" font-style="normal" fill="#333333" opacity="1" x="6.562" text-anchor="start" y="13.542" textLength="130.20834350585938">Warp to new anomaly</tspan></text></g></g><g width="251.721" height="508.711" transform="scale(1,1) translate(612.251,374.501)"><g fill="#545454" stroke="#545454" stroke-opacity="1" transform="scale(1,1) translate(0,0)"><path fill="none" stroke-width="1" stroke-dasharray="none" d="M 251.721 508.711 A 406.294 406.294 0 0 0 9.393 3.43"/><g><g stroke-dasharray="none"><path d="M7.678,8.127L0,0L11.108,-1.267z" stroke="none" fill-opacity="1"/></g></g></g></g><g width="251" height="50.5" transform="scale(1,1) translate(412.85,1044.44)"><g fill="#545454" stroke="#545454" stroke-opacity="1" transform="scale(1,1) translate(0,0)"><path fill="none" stroke-width="1" stroke-dasharray="none" d="M125.5,0 L125.5,0 M125.5,0 L125.5,0 M125.5,0 L125.5,0 M125.5,0 L0,50.5 M125.5,0 L251,50.5"/><g><g stroke-dasharray="none"><path d="M120.5,-5L130.5,-5L130.5,5L120.5,5z" stroke-width="0" fill="none"/></g></g></g><g stroke-width="0" stroke-dasharray="none" fill="#FFFFFF" opacity="1" width="24.917" height="18.667" transform="scale(1,1) translate(50.292,15.917)"><rect width="24.917" height="18.667"/></g><g width="22.916667938232422" height="90.5" transform="scale(1,1) translate(51.292,16.917)"><text width="22.916667938232422" height="16.666667938232422" transform="scale(1,1) translate(0,0)" xml:space="preserve"><tspan xml:space="preserve" text-rendering="optimizeSpeed" style="font-family: Arial, Helvetica Neue, Helvetica, sans-serif;" font-size="13.88888888888889" font-weight="normal" font-style="normal" fill="#333333" opacity="1" x="0" text-anchor="start" y="13.542" textLength="22.916667938232422">Yes</tspan></text></g><g stroke-width="0" stroke-dasharray="none" fill="#FFFFFF" opacity="1" width="18.667" height="18.667" transform="scale(1,1) translate(178.917,15.917)"><rect width="18.667" height="18.667"/></g><g width="16.666667938232422" height="90.5" transform="scale(1,1) translate(179.917,16.917)"><text width="16.666667938232422" height="16.666667938232422" transform="scale(1,1) translate(0,0)" xml:space="preserve"><tspan xml:space="preserve" text-rendering="optimizeSpeed" style="font-family: Arial, Helvetica Neue, Helvetica, sans-serif;" font-size="13.88888888888889" font-weight="normal" font-style="normal" fill="#333333" opacity="1" x="0" text-anchor="start" y="13.542" textLength="16.666667938232422">No</tspan></text></g></g><g width="150" height="75" transform="scale(1,1) translate(463.35,969.44)"><g stroke="#7F7F7F" stroke-opacity="1" stroke-width="1" stroke-dasharray="none" width="150" height="75" transform="scale(1,1) translate(0,0)" fill="url(#ffdf6c15-6e97-4551-872b-46164550069c)" filter="url(#effadb1e-25a1-4e8d-80a2-f81ce23af8b9)"><linearGradient id="ffdf6c15-6e97-4551-872b-46164550069c" x1="75" y1="0" x2="75" y2="75" gradientUnits="userSpaceOnUse"><stop offset="0%" style="stop-color:#92B0CF;stop-opacity:1;"/><stop offset="100%" style="stop-color:#8CA8CD;stop-opacity:1;"/></linearGradient><rect width="150" height="75"/></g><g width="143.33333333333334" height="68.33333333333333" transform="scale(1,1) translate(3.333,3.333)"><text width="143.33333333333334" height="33.333335876464844" transform="scale(1,1) translate(0,17.499998728434242)" xml:space="preserve"><tspan xml:space="preserve" text-rendering="optimizeSpeed" style="font-family: Arial, Helvetica Neue, Helvetica, sans-serif;" font-size="13.88888888888889" font-weight="normal" font-style="normal" fill="#333333" opacity="1" x="6.562" text-anchor="start" y="13.542" textLength="126.04167938232422">Are there any priority</tspan><tspan xml:space="preserve" text-rendering="optimizeSpeed" style="font-family: Arial, Helvetica Neue, Helvetica, sans-serif;" font-size="13.88888888888889" font-weight="normal" font-style="normal" fill="#333333" opacity="1" x="53.958" text-anchor="start" y="30.208" textLength="35.41667175292969">NPCs</tspan></text></g></g><g width="150" height="75" transform="scale(1,1) translate(337.85,1094.94)"><g stroke="#7F7F7F" stroke-opacity="1" stroke-width="1" stroke-dasharray="none" width="150" height="75" transform="scale(1,1) translate(0,0)" fill="url(#499f7717-cfa2-465c-8c59-8f716468e91f)" filter="url(#effadb1e-25a1-4e8d-80a2-f81ce23af8b9)"><linearGradient id="499f7717-cfa2-465c-8c59-8f716468e91f" x1="75" y1="0" x2="75" y2="75" gradientUnits="userSpaceOnUse"><stop offset="0%" style="stop-color:#92B0CF;stop-opacity:1;"/><stop offset="100%" style="stop-color:#8CA8CD;stop-opacity:1;"/></linearGradient><rect width="150" height="75"/></g><g width="143.33333333333334" height="68.33333333333333" transform="scale(1,1) translate(3.333,3.333)"><text width="143.33333333333334" height="16.666667938232422" transform="scale(1,1) translate(0,25.833332697550453)" xml:space="preserve"><tspan xml:space="preserve" text-rendering="optimizeSpeed" style="font-family: Arial, Helvetica Neue, Helvetica, sans-serif;" font-size="13.88888888888889" font-weight="normal" font-style="normal" fill="#333333" opacity="1" x="10.729" text-anchor="start" y="13.542" textLength="121.87500762939453">Focus priority NPCs</tspan></text></g></g><g width="0" height="50.5" transform="scale(1,1) translate(663.85,1169.94)"><g fill="#545454" stroke="#545454" stroke-opacity="1" transform="scale(1,1) translate(0,0)"><path fill="none" stroke-width="1" stroke-dasharray="none" d="M0,0 L0,0 M0,0 L0,0 M0,0 L0,0 M0,0 L0,50.5"/><g><g stroke-dasharray="none"><path d="M-5,-5L5,-5L5,5L-5,5z" stroke-width="0" fill="none"/></g></g></g></g><g width="150" height="75" transform="scale(1,1) translate(588.85,1094.94)"><g stroke="#7F7F7F" stroke-opacity="1" stroke-width="1" stroke-dasharray="none" width="150" height="75" transform="scale(1,1) translate(0,0)" fill="url(#41b18dcb-d6f4-40e1-85e0-c34973f3c815)" filter="url(#effadb1e-25a1-4e8d-80a2-f81ce23af8b9)"><linearGradient id="41b18dcb-d6f4-40e1-85e0-c34973f3c815" x1="75" y1="0" x2="75" y2="75" gradientUnits="userSpaceOnUse"><stop offset="0%" style="stop-color:#92B0CF;stop-opacity:1;"/><stop offset="100%" style="stop-color:#8CA8CD;stop-opacity:1;"/></linearGradient><rect width="150" height="75"/></g><g width="143.33333333333334" height="68.33333333333333" transform="scale(1,1) translate(3.333,3.333)"><text width="143.33333333333334" height="16.666667938232422" transform="scale(1,1) translate(0,25.833332697550453)" xml:space="preserve"><tspan xml:space="preserve" text-rendering="optimizeSpeed" style="font-family: Arial, Helvetica Neue, Helvetica, sans-serif;" font-size="13.88888888888889" font-weight="normal" font-style="normal" fill="#333333" opacity="1" x="19.583" text-anchor="start" y="13.542" textLength="104.16667175292969">Engage any NPC</tspan></text></g></g><g width="0" height="50" transform="scale(1,1) translate(538.35,1420.94)"><g fill="#545454" stroke="#545454" stroke-opacity="1" transform="scale(1,1) translate(0,0)"><path fill="none" stroke-width="1" stroke-dasharray="none" d="M0,0"/></g></g><g width="251" height="50.5" transform="scale(1,1) translate(538.35,1295.44)"><g fill="#545454" stroke="#545454" stroke-opacity="1" transform="scale(1,1) translate(0,0)"><path fill="none" stroke-width="1" stroke-dasharray="none" d="M125.5,0 L125.5,0 M125.5,0 L125.5,0 M125.5,0 L125.5,0 M125.5,0 L0,50.5 M125.5,0 L251,50.5"/><g><g stroke-dasharray="none"><path d="M120.5,-5L130.5,-5L130.5,5L120.5,5z" stroke-width="0" fill="none"/></g></g></g><g stroke-width="0" stroke-dasharray="none" fill="#FFFFFF" opacity="1" width="24.917" height="18.667" transform="scale(1,1) translate(50.292,15.917)"><rect width="24.917" height="18.667"/></g><g width="22.916667938232422" height="90.5" transform="scale(1,1) translate(51.292,16.917)"><text width="22.916667938232422" height="16.666667938232422" transform="scale(1,1) translate(0,0)" xml:space="preserve"><tspan xml:space="preserve" text-rendering="optimizeSpeed" style="font-family: Arial, Helvetica Neue, Helvetica, sans-serif;" font-size="13.88888888888889" font-weight="normal" font-style="normal" fill="#333333" opacity="1" x="0" text-anchor="start" y="13.542" textLength="22.916667938232422">Yes</tspan></text></g><g stroke-width="0" stroke-dasharray="none" fill="#FFFFFF" opacity="1" width="18.667" height="18.667" transform="scale(1,1) translate(178.917,15.917)"><rect width="18.667" height="18.667"/></g><g width="16.666667938232422" height="90.5" transform="scale(1,1) translate(179.917,16.917)"><text width="16.666667938232422" height="16.666667938232422" transform="scale(1,1) translate(0,0)" xml:space="preserve"><tspan xml:space="preserve" text-rendering="optimizeSpeed" style="font-family: Arial, Helvetica Neue, Helvetica, sans-serif;" font-size="13.88888888888889" font-weight="normal" font-style="normal" fill="#333333" opacity="1" x="0" text-anchor="start" y="13.542" textLength="16.666667938232422">No</tspan></text></g></g><g width="150" height="75" transform="scale(1,1) translate(588.85,1220.44)"><g stroke="#7F7F7F" stroke-opacity="1" stroke-width="1" stroke-dasharray="none" width="150" height="75" transform="scale(1,1) translate(0,0)" fill="url(#eb6c3b3f-c1d0-4a7d-8f34-aba2475ff91e)" filter="url(#effadb1e-25a1-4e8d-80a2-f81ce23af8b9)"><linearGradient id="eb6c3b3f-c1d0-4a7d-8f34-aba2475ff91e" x1="75" y1="0" x2="75" y2="75" gradientUnits="userSpaceOnUse"><stop offset="0%" style="stop-color:#92B0CF;stop-opacity:1;"/><stop offset="100%" style="stop-color:#8CA8CD;stop-opacity:1;"/></linearGradient><rect width="150" height="75"/></g><g width="143.33333333333334" height="68.33333333333333" transform="scale(1,1) translate(3.333,3.333)"><text width="143.33333333333334" height="33.333335876464844" transform="scale(1,1) translate(0,17.499998728434242)" xml:space="preserve"><tspan xml:space="preserve" text-rendering="optimizeSpeed" style="font-family: Arial, Helvetica Neue, Helvetica, sans-serif;" font-size="13.88888888888889" font-weight="normal" font-style="normal" fill="#333333" opacity="1" x="7.083" text-anchor="start" y="13.542" textLength="125.00000762939453">Are there any hostile</tspan><tspan xml:space="preserve" text-rendering="optimizeSpeed" style="font-family: Arial, Helvetica Neue, Helvetica, sans-serif;" font-size="13.88888888888889" font-weight="normal" font-style="normal" fill="#333333" opacity="1" x="46.146" text-anchor="start" y="30.208" textLength="51.04168701171875">players?</tspan></text></g></g><g width="150" height="75" transform="scale(1,1) translate(463.35,1345.94)"><g stroke="#7F7F7F" stroke-opacity="1" stroke-width="1" stroke-dasharray="none" width="150" height="75" transform="scale(1,1) translate(0,0)" fill="url(#caad11c2-0190-49d5-8ead-7a876da2ea06)" filter="url(#effadb1e-25a1-4e8d-80a2-f81ce23af8b9)"><linearGradient id="caad11c2-0190-49d5-8ead-7a876da2ea06" x1="75" y1="0" x2="75" y2="75" gradientUnits="userSpaceOnUse"><stop offset="0%" style="stop-color:#92B0CF;stop-opacity:1;"/><stop offset="100%" style="stop-color:#8CA8CD;stop-opacity:1;"/></linearGradient><rect width="150" height="75"/></g><g width="143.33333333333334" height="68.33333333333333" transform="scale(1,1) translate(3.333,3.333)"><text width="143.33333333333334" height="16.666667938232422" transform="scale(1,1) translate(0,25.833332697550453)" xml:space="preserve"><tspan xml:space="preserve" text-rendering="optimizeSpeed" style="font-family: Arial, Helvetica Neue, Helvetica, sans-serif;" font-size="13.88888888888889" font-weight="normal" font-style="normal" fill="#333333" opacity="1" x="27.396" text-anchor="start" y="13.542" textLength="88.54167175292969">Routine = Flee</tspan></text></g></g><g width="0" height="50" transform="scale(1,1) translate(789.35,1420.94)"><g fill="#545454" stroke="#545454" stroke-opacity="1" transform="scale(1,1) translate(0,0)"><path fill="none" stroke-width="1" stroke-dasharray="none" d="M0,0"/></g></g><g width="150" height="75" transform="scale(1,1) translate(714.35,1345.94)"><g stroke="#7F7F7F" stroke-opacity="1" stroke-width="1" stroke-dasharray="none" width="150" height="75" transform="scale(1,1) translate(0,0)" fill="url(#80da48de-dda8-456b-8e6d-8cbbd77daa03)" filter="url(#effadb1e-25a1-4e8d-80a2-f81ce23af8b9)"><linearGradient id="80da48de-dda8-456b-8e6d-8cbbd77daa03" x1="75" y1="0" x2="75" y2="75" gradientUnits="userSpaceOnUse"><stop offset="0%" style="stop-color:#92B0CF;stop-opacity:1;"/><stop offset="100%" style="stop-color:#8CA8CD;stop-opacity:1;"/></linearGradient><rect width="150" height="75"/></g><g width="143.33333333333334" height="68.33333333333333" transform="scale(1,1) translate(3.333,3.333)"><text width="143.33333333333334" height="16.666667938232422" transform="scale(1,1) translate(0,25.833332697550453)" xml:space="preserve"><tspan xml:space="preserve" text-rendering="optimizeSpeed" style="font-family: Arial, Helvetica Neue, Helvetica, sans-serif;" font-size="13.88888888888889" font-weight="normal" font-style="normal" fill="#333333" opacity="1" x="19.583" text-anchor="start" y="13.542" textLength="104.16667175292969">Continue Combat</tspan></text></g></g><g width="124.31" height="751.132" transform="scale(1,1) translate(739.661,628.391)"><g fill="#545454" stroke="#545454" stroke-opacity="1" transform="scale(1,1) translate(0,0)"><path fill="none" stroke-width="1" stroke-dasharray="none" d="M 124.31 751.132 A 707.739 707.739 0 0 0 6.631 7.487"/><g><g stroke-dasharray="none"><path d="M2.888,10.802L0.001,0.001L10.374,4.171z" stroke="none" fill-opacity="1"/></g></g></g></g><g width="251.721" height="1009.052" transform="scale(1,1) translate(212.35,376.671)"><g fill="#545454" stroke="#545454" stroke-opacity="1" transform="scale(1,1) translate(0,0)"><path fill="none" stroke-width="1" stroke-dasharray="none" d="M 251.721 1009.052 A 638.502 638.502 0 0 1 -6.438 7.653"/><g><g stroke-dasharray="none"><path d="M-10.264,4.434L0,0L-2.612,10.872z" stroke="none" fill-opacity="1"/></g></g></g></g><g width="179.18" height="81.84" transform="scale(1,1) translate(409.201,1170.272)"><g transform="scale(1,1) translate(0,0)" fill="#545454" stroke="#545454" stroke-opacity="1"><path d="M 0 0 L 89.59 0 L 89.59 81.84 L 169.18 81.84" fill="none" stroke-width="1" stroke-dasharray="none"/><g><g stroke-dasharray="none"><path d="M169.18,76.84L179.18,81.84L169.18,86.84z" stroke="none" fill-opacity="1"/></g></g></g></g></g></svg>